<svg width="11" height="8" viewBox="0 0 11 8" fill="none" xmlns="http://www.w3.org/2000/svg">
<path d="M6.85116 8C6.73971 8 6.62825 7.95894 6.54026 7.87094C6.37014 7.70082 6.37014 7.41925 6.54026 7.24913L9.79012 3.99926L6.54026 0.749405C6.37014 0.579286 6.37014 0.297709 6.54026 0.12759C6.71038 -0.0425298 6.99195 -0.0425298 7.16207 0.12759L10.7228 3.68835C10.893 3.85847 10.893 4.14005 10.7228 4.31017L7.16207 7.87094C7.07408 7.95894 6.96262 8 6.85116 8Z" fill="#0D0D0D"/>
<path d="M10.3128 4.43919H0.439964C0.19945 4.43919 0 4.23973 0 3.99922C0 3.75871 0.19945 3.55926 0.439964 3.55926H10.3128C10.5533 3.55926 10.7527 3.75871 10.7527 3.99922C10.7527 4.23973 10.5533 4.43919 10.3128 4.43919Z" fill="#0D0D0D"/>
</svg>
