<svg width="23" height="23" viewBox="0 0 23 23" fill="none" xmlns="http://www.w3.org/2000/svg">
<path d="M20.4444 4.47222H2.55556C1.14425 4.47222 0 5.61647 0 7.02778V16.6111C0 18.0224 1.14425 19.1667 2.55556 19.1667H9.84911C10.1813 19.5474 10.7928 19.8056 11.5 19.8056C12.2073 19.8056 12.8193 19.5474 13.1509 19.1667H20.4444C21.8558 19.1667 23 18.0224 23 16.6111V7.02778C23 5.61647 21.8558 4.47222 20.4444 4.47222Z" fill="#DAA520"/>
<path d="M12.7778 17.25C12.7778 17.9553 12.2053 18.5278 11.5 18.5278C10.7947 18.5278 10.2222 17.9553 10.2222 17.25V5.75C10.2222 5.04467 10.7947 4.47222 11.5 4.47222C12.2053 4.47222 12.7778 5.04467 12.7778 5.75V17.25Z" fill="#292F33"/>
<path d="M11.5 16.6111C11.5 17.3164 10.9275 17.8889 10.2222 17.8889H2.55555C1.85022 17.8889 1.27777 17.3164 1.27777 16.6111V5.11111C1.27777 4.40578 1.85022 3.83333 2.55555 3.83333H10.2222C10.9275 3.83333 11.5 4.40578 11.5 5.11111V16.6111Z" fill="#99AAB5"/>
<path d="M11.5 16.6111C10.8618 15.3346 9.16359 15.3333 8.94445 15.3333C7.66667 15.3333 5.75 16.6111 3.83334 16.6111C3.19445 16.6111 2.55556 16.0387 2.55556 15.3333V5.11111C2.55556 4.40578 3.19445 3.83334 3.83334 3.83334C5.91292 3.83334 7.66667 2.55556 8.94445 2.55556C10.8611 2.55556 11.5 3.76689 11.5 4.47222V16.6111Z" fill="#E1E8ED"/>
<path d="M21.7222 16.6111C21.7222 17.3164 21.1498 17.8889 20.4444 17.8889H12.7778C12.0724 17.8889 11.5 17.3164 11.5 16.6111V5.11111C11.5 4.40578 12.0724 3.83333 12.7778 3.83333H20.4444C21.1498 3.83333 21.7222 4.40578 21.7222 5.11111V16.6111Z" fill="#99AAB5"/>
<path d="M11.5 16.6111C12.1383 15.3346 13.8364 15.3333 14.0556 15.3333C15.3333 15.3333 17.25 16.6111 19.1667 16.6111C19.8056 16.6111 20.4444 16.0387 20.4444 15.3333V5.11111C20.4444 4.40578 19.8056 3.83334 19.1667 3.83334C17.0864 3.83334 15.3333 2.55556 14.0556 2.55556C12.1389 2.55556 11.5 3.76689 11.5 4.47222V16.6111Z" fill="#CCD6DD"/>
</svg>
