<svg width="10" height="9" viewBox="0 0 10 9" fill="none" xmlns="http://www.w3.org/2000/svg">
<path d="M1.16525 6.54092C1.08202 6.54092 0.99879 6.51025 0.93308 6.44454C0.33293 5.84001 0 5.04273 0 4.19727C0 2.44064 1.42371 1.01254 3.17598 1.01254L5.83504 1.02131L5.35754 0.565702C5.22612 0.438663 5.22174 0.232776 5.34878 0.101356C5.47582 -0.0300635 5.68171 -0.0344266 5.81313 0.0926125L6.88201 1.11767C6.97839 1.20966 7.00905 1.35423 6.96086 1.47689C6.91268 1.59955 6.79002 1.68279 6.65422 1.68279L3.1716 1.67402C1.78293 1.67402 0.652722 2.80862 0.652722 4.20169C0.652722 4.87193 0.915553 5.50708 1.39304 5.98457C1.52008 6.11161 1.52008 6.32189 1.39304 6.44892C1.33172 6.51025 1.24849 6.54092 1.16525 6.54092Z" fill="#0D0D0D"/>
<path d="M3.83294 8.54292C3.74971 8.54292 3.67085 8.51221 3.60514 8.45088L2.53626 7.42585C2.43989 7.33386 2.40923 7.1893 2.45741 7.06664C2.5056 6.94398 2.62826 6.8607 2.76406 6.8607L6.24668 6.86951C7.63535 6.86951 8.76556 5.73488 8.76556 4.34183C8.76556 3.67159 8.50272 3.03643 8.02523 2.55894C7.89819 2.4319 7.89819 2.22163 8.02523 2.09459C8.15227 1.96755 8.36254 1.96755 8.48958 2.09459C9.08973 2.69912 9.42266 3.49636 9.42266 4.34183C9.42266 6.09847 7.99894 7.52661 6.24668 7.52661L3.58762 7.5178L4.06511 7.97344C4.19653 8.10047 4.20091 8.30637 4.07388 8.43779C4.00378 8.50788 3.92055 8.54292 3.83294 8.54292Z" fill="#0D0D0D"/>
<path d="M6.02335 4.60034H3.39496C3.21535 4.60034 3.06641 4.45139 3.06641 4.27179C3.06641 4.09218 3.21535 3.94324 3.39496 3.94324H6.02335C6.20296 3.94324 6.3519 4.09218 6.3519 4.27179C6.3519 4.45139 6.20296 4.60034 6.02335 4.60034Z" fill="#0D0D0D"/>
</svg>
